<svg id="Isolation_Mode" data-name="Isolation Mode" xmlns="http://www.w3.org/2000/svg" viewBox="0 0 97.86 112.22"><title>logo_icon</title><path d="M3320.28,2125.91a2.44,2.44,0,0,1-1.25-.33l-20.31-11.76a2.5,2.5,0,1,1,2.51-4.32l20.3,11.75a2.5,2.5,0,0,1-1.25,4.66Z" transform="translate(-3225.32 -2040.7)" style="fill:#fefefe"/><path d="M3228.22,2125.91a2.5,2.5,0,0,1-1.25-4.66l20.3-11.75a2.5,2.5,0,1,1,2.51,4.32l-20.31,11.76A2.44,2.44,0,0,1,3228.22,2125.91Z" transform="translate(-3225.32 -2040.7)" style="fill:#fefefe"/><path d="M3320.68,2126.11a2.5,2.5,0,0,1-2.5-2.5V2070a2.5,2.5,0,0,1,5,0v53.61A2.5,2.5,0,0,1,3320.68,2126.11Z" transform="translate(-3225.32 -2040.7)" style="fill:#dd6b05"/><path d="M3274.25,2152.52a2.5,2.5,0,0,1-2.5-2.5v-20.86a2.5,2.5,0,0,1,5,0V2150A2.5,2.5,0,0,1,3274.25,2152.52Z" transform="translate(-3225.32 -2040.7)" style="fill:#dd6b05"/><path d="M3274.25,2069.6a2.5,2.5,0,0,1-2.5-2.5V2044a2.5,2.5,0,0,1,5,0v23.1A2.5,2.5,0,0,1,3274.25,2069.6Z" transform="translate(-3225.32 -2040.7)" style="fill:#fefefe"/><path d="M3274.25,2152.92a2.5,2.5,0,0,1-1.25-4.67l46.43-26.8a2.5,2.5,0,0,1,2.5,4.33l-46.43,26.8A2.45,2.45,0,0,1,3274.25,2152.92Z" transform="translate(-3225.32 -2040.7)" style="fill:#dd6b05"/><path d="M3274.25,2152.92a2.45,2.45,0,0,1-1.25-.34l-46.43-26.8a2.51,2.51,0,0,1-1.25-2.17V2070a2.5,2.5,0,0,1,1.25-2.16L3273,2041a2.53,2.53,0,0,1,2.5,0l46.43,26.81a2.5,2.5,0,0,1-2.5,4.33l-45.18-26.09-43.93,25.37v50.72l45.18,26.08a2.5,2.5,0,0,1-1.25,4.67Z" transform="translate(-3225.32 -2040.7)" style="fill:#dd6b05"/><path d="M3274.25,2129a2.54,2.54,0,0,1-1.25-.33l-25.72-14.86a2.47,2.47,0,0,1-1.25-2.16V2082a2.49,2.49,0,0,1,1.25-2.17l25.72-14.85a2.48,2.48,0,0,1,2.5,0l25.72,14.85a2.49,2.49,0,0,1,1.25,2.17v29.7a2.47,2.47,0,0,1-1.25,2.16l-25.72,14.86A2.54,2.54,0,0,1,3274.25,2129ZM3251,2110.22l23.22,13.4,23.22-13.4V2083.4L3274.25,2070,3251,2083.4Z" transform="translate(-3225.32 -2040.7)" style="fill:#17a8e2"/><path d="M3274.25,2129.26a2.5,2.5,0,0,1-2.5-2.5v-29.15a2.5,2.5,0,0,1,5,0v29.15A2.5,2.5,0,0,1,3274.25,2129.26Z" transform="translate(-3225.32 -2040.7)" style="fill:#dd6b05"/><path d="M3274.25,2100.11a2.5,2.5,0,0,1-1.28-4.65l46.43-27.61a2.5,2.5,0,0,1,2.56,4.3l-46.43,27.61A2.57,2.57,0,0,1,3274.25,2100.11Z" transform="translate(-3225.32 -2040.7)" style="fill:#dd6b05"/><path d="M3274.25,2100.11a2.57,2.57,0,0,1-1.28-.35l-46.43-27.61a2.5,2.5,0,0,1,2.56-4.3l46.43,27.61a2.5,2.5,0,0,1-1.28,4.65Z" transform="translate(-3225.32 -2040.7)" style="fill:#dd6b05"/><path d="M3274.25,2098.5" transform="translate(-3225.32 -2040.7)" style="fill:none;stroke:#fefefe;stroke-linecap:round;stroke-linejoin:round;stroke-width:5px"/></svg>